<svg xmlns="http://www.w3.org/2000/svg" xmlns:xlink="http://www.w3.org/1999/xlink" width="70" zoomAndPan="magnify" viewBox="0 0 52.5 52.499999" height="70" preserveAspectRatio="xMidYMid meet" version="1.0"><defs><clipPath id="b61b7c410d"><path d="M 1 3.042969 L 51.886719 3.042969 L 51.886719 49 L 1 49 Z M 1 3.042969 " clip-rule="nonzero"/></clipPath></defs><g clip-path="url(#b61b7c410d)"><path fill="#ffffff" d="M 2.019531 30.480469 C 2.441406 31.164062 4.988281 33.980469 8.316406 37.898438 C 12.292969 42.578125 16.773438 47.851562 17.296875 48.449219 C 18.261719 49.546875 18.972656 48.789062 20.414062 45.917969 C 22.40625 41.941406 26.519531 33.222656 32.300781 25.269531 C 38.082031 17.3125 46.757812 8.53125 48.820312 6.886719 C 50.886719 5.242188 51.847656 4.144531 50.472656 3.59375 C 49.097656 3.046875 38.347656 10.621094 32.074219 17.394531 C 25.339844 24.664062 18.042969 36.535156 16.234375 36.8125 C 14.785156 37.039062 7.773438 31.800781 5.789062 30.566406 C 3.480469 29.140625 0.925781 28.703125 2.019531 30.480469 " fill-opacity="1" fill-rule="nonzero"/></g></svg>