<svg id="Layer_1" data-name="Layer 1" xmlns="http://www.w3.org/2000/svg" viewBox="0 0 111.83 111.83"><defs><style>.cls-1{fill:#b4995b;}.cls-2{fill:#1b3e64;}</style></defs><path class="cls-1" d="M102.25,103.36c-20.41-2.68-40.43-15.45-51.61-37.63C40.37,45.35,40.8,22.66,50.37,5.35,44,22.2,45.14,42.87,54.78,61.77,65.17,82.14,80.71,93.21,102.25,103.36Z"/><path class="cls-2" d="M82.12,105.44c-14.73-.69-30.2-8.76-40.35-24.26C32.44,67,30.46,50.36,35.49,37.13,32.71,49.82,35.57,64.84,44.3,78,53.71,92.26,65.84,99.37,82.12,105.44Z"/><path class="cls-2" d="M2.51,106.18c7.73,1.06,15.79-.61,22.51-7a24.57,24.57,0,0,0,8-20.76c-1,7.17-2.56,12.24-9.2,18.8C17.79,103.24,12.65,104.88,2.51,106.18Z"/></svg>